<svg xmlns="http://www.w3.org/2000/svg" viewBox="0 0 256 256" width="256" height="256">
<rect width="256" height="256" fill="#f4f0e7"/>
<path d="M 25.31 22.66 L 19.39 29.40 L 16.54 34.50 L 14.09 41.65 L 13.07 48.59 L 13.07 207.41 L 14.09 214.15 L 15.92 219.87 L 19.19 225.99 L 23.07 230.89 L 28.99 235.99 L 34.70 239.26 L 42.87 241.91 L 49.40 242.73 L 206.39 242.73 L 213.95 241.71 L 219.66 239.87 L 224.56 237.42 L 229.46 233.95 L 234.97 228.24 L 239.26 221.30 L 241.91 213.13 L 242.73 206.80 L 242.73 49.40 L 241.91 42.67 L 239.67 35.52 L 236.20 29.19 L 232.11 24.29 L 227.01 20.01 L 221.50 16.74 L 215.37 14.49 L 207.00 13.07 L 48.59 13.07 L 41.85 14.09 L 35.11 16.33 L 30.83 18.58 Z M 25.31 24.09 L 28.99 21.03 L 35.32 17.35 L 40.42 15.52 L 48.38 14.09 L 207.21 14.09 L 215.37 15.52 L 221.70 17.96 L 227.01 21.23 L 233.14 26.95 L 236.20 31.03 L 238.85 36.13 L 240.69 41.65 L 241.71 48.38 L 241.71 207.62 L 240.48 214.97 L 238.04 221.50 L 234.16 227.62 L 229.05 232.93 L 224.56 236.20 L 219.46 238.85 L 212.93 240.89 L 207.21 241.71 L 48.59 241.71 L 41.85 240.69 L 35.32 238.44 L 27.97 233.95 L 22.66 228.85 L 18.99 223.74 L 16.74 219.25 L 14.70 212.52 L 14.09 207.82 L 14.09 47.97 L 14.90 42.46 L 17.15 35.52 L 20.82 29.19 Z M 113.10 107.79 L 113.10 109.42 L 118.00 109.42 L 121.88 111.06 L 123.10 112.48 L 124.12 115.34 L 124.33 184.55 L 123.30 189.65 L 122.28 191.49 L 120.45 193.33 L 116.57 195.16 L 109.83 195.98 L 109.83 197.82 L 154.54 197.61 L 154.54 195.98 L 148.01 195.37 L 143.92 193.74 L 141.88 191.90 L 140.45 188.84 L 139.84 183.94 L 139.84 151.89 L 140.25 151.48 L 147.80 151.89 L 150.25 152.91 L 153.11 155.15 L 158.01 162.09 L 171.48 187.20 L 174.95 191.69 L 178.02 194.14 L 181.28 195.78 L 187.81 197.41 L 193.94 197.82 L 206.19 197.61 L 206.19 195.98 L 202.92 195.57 L 198.84 193.74 L 195.37 191.29 L 191.08 187.00 L 184.34 177.61 L 175.57 162.91 L 171.07 157.60 L 167.40 154.95 L 163.73 153.11 L 155.76 151.07 L 155.97 150.46 L 161.07 150.05 L 168.83 148.41 L 174.34 146.37 L 181.49 142.09 L 185.98 137.59 L 189.24 131.06 L 189.86 127.59 L 189.86 123.92 L 189.45 121.06 L 188.02 116.57 L 185.98 113.10 L 183.32 110.24 L 179.65 107.79 L 174.95 105.95 L 169.24 104.73 L 162.50 104.11 L 150.46 104.11 L 140.25 104.73 Z M 161.89 108.81 L 164.34 110.44 L 167.81 114.12 L 169.85 117.79 L 171.07 121.88 L 171.28 129.02 L 170.67 132.29 L 168.63 137.19 L 166.99 139.64 L 163.73 143.11 L 160.46 145.56 L 156.58 147.60 L 149.44 149.44 L 140.25 149.44 L 139.84 149.03 L 140.04 107.59 L 140.66 106.97 L 143.31 106.56 L 153.31 106.36 L 158.62 107.38 Z M 129.84 68.19 L 126.98 66.14 L 121.47 63.69 L 115.34 62.26 L 107.59 61.45 L 94.52 61.24 L 53.28 62.47 L 53.28 64.31 L 58.39 64.71 L 62.06 66.35 L 63.69 67.98 L 65.12 72.06 L 65.33 144.54 L 64.31 149.44 L 61.65 152.91 L 56.75 155.15 L 50.02 155.76 L 50.02 157.60 L 96.77 157.60 L 96.77 155.76 L 90.85 155.36 L 86.15 153.72 L 83.50 151.27 L 82.27 148.41 L 81.86 145.76 L 82.07 108.40 L 88.60 108.40 L 91.66 109.01 L 94.72 110.65 L 96.77 112.48 L 101.46 119.63 L 115.55 147.39 L 119.02 152.50 L 121.47 154.74 L 121.47 128.61 L 117.18 120.65 L 114.12 116.36 L 111.67 113.91 L 107.59 111.06 L 102.48 108.81 L 99.62 108.20 L 99.22 107.59 L 109.83 106.16 L 119.43 103.30 L 126.37 99.62 L 130.45 96.36 L 132.49 94.11 L 134.53 90.85 L 135.55 88.19 L 136.17 85.13 L 136.17 80.84 L 134.53 74.51 L 132.49 71.04 Z M 108.40 67.37 L 110.24 68.80 L 113.51 72.47 L 115.55 76.56 L 116.36 79.82 L 116.57 85.13 L 116.16 87.78 L 115.14 91.05 L 112.89 95.13 L 109.42 99.01 L 106.56 101.26 L 100.24 104.52 L 95.95 105.75 L 91.66 106.36 L 82.07 106.36 L 82.07 64.51 L 82.68 63.90 L 87.78 63.49 L 97.79 63.69 L 104.52 65.33 Z " fill="#171612" fill-rule="evenodd"/>
</svg>